<svg width="400" height="286" viewBox="0 0 400 286">
  <g class="code_logo">
    <path fill="#EEE" stroke="#353535" stroke-width="10" d="M15 51h370v225a5 5 0 01-5 5H20a5 5 0 01-5-5V51z" class="bg_code"/>
    <path fill="#353535" d="M10 13c0-5.523 4.477-10 10-10h360c5.523 0 10 4.477 10 10v30H10V13z" class="top_bg_code"/>
    <g class="code">
      <path fill="#353535" d="M235.161 91.883L193.691 246.7c-1.796 6.703-7.861 11.125-14.49 11.125-1.285 0-2.59-.166-3.891-.514-8.008-2.143-12.761-10.366-10.617-18.369l41.469-154.816c2.143-8.003 10.369-12.754 18.38-10.61 8.009 2.142 12.762 10.365 10.619 18.368zM128.329 202.229c6.524 5.111 7.667 14.539 2.552 21.06a14.992 14.992 0 01-11.822 5.746c-3.24 0-6.503-1.044-9.25-3.196l-62.06-48.621a14.996 14.996 0 010-23.61l62.06-48.621c6.523-5.11 15.959-3.968 21.072 2.55 5.115 6.521 3.972 15.948-2.552 21.06l-46.992 36.816 46.992 36.816zM351.589 177.217l-62.06 48.621a14.954 14.954 0 01-9.25 3.196 14.989 14.989 0 01-11.822-5.746c-5.115-6.521-3.972-15.948 2.552-21.06l46.992-36.816-46.992-36.816c-6.712-5.259-7.728-15.088-2.092-21.618 5.279-6.116 14.584-6.715 20.945-1.731l61.728 48.361a14.992 14.992 0 01-.001 23.609z"/>
    </g>
  </g>
</svg>
