<svg width="398" height="398" viewBox="0 0 398 398">
  <g class="discord_logo">
    <circle cx="199" cy="199" r="191.5" fill="#7289DA" stroke="#243261" stroke-width="15" class="bg_discord"/>
    <path fill="#F2F2F2" fill-rule="evenodd" d="M80.275 118.18c39.275-28.539 75.679-27.17 75.679-27.17l2.935 2.889c-48.06 11.445-69.85 32.882-69.85 32.882s5.828-2.846 16.005-7.189c64.73-25.415 135.417-23.575 200.853 8.601 0 0-21.833-20.046-66.936-32.882l3.985-3.915c6.235.021 39.232 1.176 74.543 26.955 0 0 39.511 67.39 39.511 150.183-1.307-1.583-24.512 35.642-84.228 36.926 0 0-10.113-11.424-17.313-21.394 34.926-10.012 47.996-30.037 47.996-30.037-11.463 7.21-21.92 11.489-30.405 15.768-12.747 5.601-25.515 8.425-38.263 11.245l-.904.2c-61.795 10.012-96.485-6.739-129.267-20.024l-11.206-5.691s13.048 20.024 46.581 30.037C131.185 295.597 122.464 307 122.464 307 62.769 305.588 41 268.363 41 268.363c0-82.921 39.275-150.183 39.275-150.183zm195.004 95.822c0 15.831-12.406 28.668-27.641 28.668-15.234 0-27.64-12.837-27.64-28.539.043-15.832 12.47-28.625 27.64-28.625v-.064c15.299 0 27.641 12.836 27.641 28.56zm-98.948 0c0 15.831-12.406 28.668-27.641 28.668-15.234 0-27.64-12.837-27.64-28.539 0-15.832 12.406-28.625 27.64-28.625l.086-.064c15.234 0 27.555 12.836 27.555 28.56z" class="discord" clip-rule="evenodd"/>
  </g>
</svg>
