<svg width="474" height="474" viewBox="0 0 474 474">
  <g class="github_logo">
    <g class="bg_github">
      <mask id="a" fill="#fff" class="path-1-inside-1">
        <rect width="474" height="474" rx="20"/>
      </mask>
      <rect width="474" height="474" fill="#F4F4F4" stroke="#3C5661" stroke-width="50" mask="url(#a)" rx="20"/>
    </g>
    <path fill="#3C5661" d="M193.842 438.883c0 .774-.085 1.545-.252 2.3-1.022 4.618-4.895 7.869-9.359 8.313l103.277-.203c-4.769-1.064-8.334-5.322-8.334-10.411v-79.36a91.6 91.6 0 00-7.744-42.773 10.652 10.652 0 01-.966-2.596c-1.32-5.741 2.265-11.465 8.006-12.785 63.232-14.571 107.371-60.843 107.371-112.512A101.16 101.16 0 00355.42 118.2a10.666 10.666 0 01-2.027-11.904 59.733 59.733 0 00-3.136-54.379 104.975 104.975 0 00-39.083 27.499 10.667 10.667 0 01-11.776 3.136 185.321 185.321 0 00-125.717 0 10.666 10.666 0 01-11.84-3.136 104.992 104.992 0 00-39.104-27.477 59.733 59.733 0 00-3.136 54.379 10.668 10.668 0 01-2.027 11.904 101.165 101.165 0 00-30.4 70.635c0 49.216 39.744 93.546 98.923 110.293a10.667 10.667 0 017.744 10.261v7.445c.211 2.261.16 4.538-.153 6.787-2.238 16.081-17.088 27.302-33.169 25.064a72.381 72.381 0 01-43.797-19.2 161.803 161.803 0 00-20.523-13.611l4.907 6.784c15.936 22.272 34.112 47.509 60.736 47.509h21.333c5.891 0 10.667 4.776 10.667 10.667v58.027z" class="github"/>
  </g>
</svg>
